<?xml version="1.0" standalone="no"?><!DOCTYPE svg PUBLIC "-//W3C//DTD SVG 1.1//EN" "http://www.w3.org/Graphics/SVG/1.1/DTD/svg11.dtd"><svg t="1587120800589" class="icon" viewBox="0 0 1024 1024" version="1.1" xmlns="http://www.w3.org/2000/svg" p-id="2910" xmlns:xlink="http://www.w3.org/1999/xlink" width="2000" height="2000"><defs><style type="text/css">@font-face { font-weight: 400; font-style: normal; font-family: Inter-Loom; src: url("https://cdn.loom.com/assets/fonts/inter/Inter-UI-Regular.woff2") format("woff2"); }
@font-face { font-weight: 400; font-style: italic; font-family: Inter-Loom; src: url("https://cdn.loom.com/assets/fonts/inter/Inter-UI-Italic.woff2") format("woff2"); }
@font-face { font-weight: 500; font-style: normal; font-family: Inter-Loom; src: url("https://cdn.loom.com/assets/fonts/inter/Inter-UI-Medium.woff2") format("woff2"); }
@font-face { font-weight: 500; font-style: italic; font-family: Inter-Loom; src: url("https://cdn.loom.com/assets/fonts/inter/Inter-UI-MediumItalic.woff2") format("woff2"); }
@font-face { font-weight: 700; font-style: normal; font-family: Inter-Loom; src: url("https://cdn.loom.com/assets/fonts/inter/Inter-UI-Bold.woff2") format("woff2"); }
@font-face { font-weight: 700; font-style: italic; font-family: Inter-Loom; src: url("https://cdn.loom.com/assets/fonts/inter/Inter-UI-BoldItalic.woff2") format("woff2"); }
@font-face { font-weight: 900; font-style: normal; font-family: Inter-Loom; src: url("https://cdn.loom.com/assets/fonts/inter/Inter-UI-Black.woff2") format("woff2"); }
@font-face { font-weight: 900; font-style: italic; font-family: Inter-Loom; src: url("https://cdn.loom.com/assets/fonts/inter/Inter-UI-BlackItalic.woff2") format("woff2"); }
</style></defs><path d="M800.421 436.525H736.76V287.852c0-124.507-100.762-225.757-224.732-225.757-123.98 0-224.857 101.25-224.857 225.766v148.662h-63.593c-30.667 0-55.532 24.952-55.532 55.752v407.048c0 30.848 24.865 55.82 55.532 55.82h576.9c30.667 0 55.465-24.97 55.465-55.82V492.275c0-30.802-24.855-55.752-55.532-55.752zM543.203 706.409v88.88a7.354 7.354 0 0 1-7.282 7.325h-47.733a7.373 7.373 0 0 1-7.334-7.322V706.41c-22.423-11.518-37.953-34.602-37.953-61.659 0-38.288 30.945-69.425 69.07-69.425 38.183 0 69.138 31.136 69.138 69.415 0.057 27.067-15.473 50.152-37.905 61.659z m107.311-269.884H373.525V291.539c0-76.691 62.196-139.146 138.552-139.146 76.366 0 138.447 62.454 138.447 139.146v144.986z" p-id="2911"></path></svg>