<?xml version="1.0" standalone="no"?><!DOCTYPE svg PUBLIC "-//W3C//DTD SVG 1.1//EN" "http://www.w3.org/Graphics/SVG/1.1/DTD/svg11.dtd"><svg t="1587493478315" class="icon" viewBox="0 0 1024 1024" version="1.1" xmlns="http://www.w3.org/2000/svg" p-id="4093" xmlns:xlink="http://www.w3.org/1999/xlink" width="2000" height="2000"><defs><style type="text/css">@font-face { font-weight: 400; font-style: normal; font-family: Inter-Loom; src: url("https://cdn.loom.com/assets/fonts/inter/Inter-UI-Regular.woff2") format("woff2"); }
@font-face { font-weight: 400; font-style: italic; font-family: Inter-Loom; src: url("https://cdn.loom.com/assets/fonts/inter/Inter-UI-Italic.woff2") format("woff2"); }
@font-face { font-weight: 500; font-style: normal; font-family: Inter-Loom; src: url("https://cdn.loom.com/assets/fonts/inter/Inter-UI-Medium.woff2") format("woff2"); }
@font-face { font-weight: 500; font-style: italic; font-family: Inter-Loom; src: url("https://cdn.loom.com/assets/fonts/inter/Inter-UI-MediumItalic.woff2") format("woff2"); }
@font-face { font-weight: 700; font-style: normal; font-family: Inter-Loom; src: url("https://cdn.loom.com/assets/fonts/inter/Inter-UI-Bold.woff2") format("woff2"); }
@font-face { font-weight: 700; font-style: italic; font-family: Inter-Loom; src: url("https://cdn.loom.com/assets/fonts/inter/Inter-UI-BoldItalic.woff2") format("woff2"); }
@font-face { font-weight: 900; font-style: normal; font-family: Inter-Loom; src: url("https://cdn.loom.com/assets/fonts/inter/Inter-UI-Black.woff2") format("woff2"); }
@font-face { font-weight: 900; font-style: italic; font-family: Inter-Loom; src: url("https://cdn.loom.com/assets/fonts/inter/Inter-UI-BlackItalic.woff2") format("woff2"); }
</style></defs><path d="M196.266667 277.333333h635.733333c17.066667 0 34.133333-12.8 34.133333-34.133333s-17.066667-29.866667-38.4-29.866667H196.266667c-21.333333 0-34.133333 17.066667-34.133334 34.133334s12.8 29.866667 34.133334 29.866666zM827.733333 477.866667H196.266667c-17.066667 0-34.133333 12.8-34.133334 34.133333s12.8 34.133333 34.133334 34.133333h635.733333c17.066667 0 34.133333-12.8 34.133333-34.133333s-17.066667-34.133333-38.4-34.133333zM827.733333 746.666667H196.266667c-17.066667 0-34.133333 12.8-34.133334 34.133333s12.8 29.866667 34.133334 29.866667h635.733333c17.066667 0 34.133333-12.8 34.133333-34.133334s-17.066667-29.866667-38.4-29.866666z" fill="#111111" p-id="4094"></path></svg>